<?xml version="1.0" encoding="UTF-8" standalone="no"?>
<!-- Created with Inkscape (http://www.inkscape.org/) -->

<svg
   width="92"
   height="98"
   viewBox="0 0 91.999275 98.340179"
   version="1.1"
   id="svg1"
   inkscape:version="1.4.2 (ebf0e940d0, 2025-05-08)"
   sodipodi:docname="Heart.svg"
   xmlns:inkscape="http://www.inkscape.org/namespaces/inkscape"
   xmlns:sodipodi="http://sodipodi.sourceforge.net/DTD/sodipodi-0.dtd"
   xmlns="http://www.w3.org/2000/svg"
   xmlns:svg="http://www.w3.org/2000/svg">
  <sodipodi:namedview
     id="namedview1"
     pagecolor="#ffffff"
     bordercolor="#FFFFFF"
     borderopacity="0.25"
     inkscape:showpageshadow="2"
     inkscape:pageopacity="0.0"
     inkscape:pagecheckerboard="0"
     inkscape:deskcolor="#d1d1d1"
     inkscape:document-units="mm"
     inkscape:zoom="1.7095469"
     inkscape:cx="173.73025"
     inkscape:cy="186.30668"
     inkscape:window-width="1894"
     inkscape:window-height="2094"
     inkscape:window-x="0"
     inkscape:window-y="0"
     inkscape:window-maximized="1"
     inkscape:current-layer="layer1" />
  <defs
     id="defs1" />
  <g
     inkscape:label="Layer 1"
     inkscape:groupmode="layer"
     id="layer1"
     transform="translate(-59.002083,-99.218745)">
    <path
       sodipodi:nodetypes="ccccccccccccccccccccc"
       id="path30"
       d="m 104.37824,197.27154 c -0.0908,-0.16358 -0.48119,-1.34626 -0.86753,-2.62819 -2.44839,-8.12427 -6.993571,-16.351 -14.605062,-26.43507 -2.859625,-3.78856 -5.551244,-7.14339 -12.829487,-15.99066 -8.42732,-10.24403 -10.841266,-13.52569 -13.278861,-18.05203 -1.439456,-2.67289 -2.931172,-6.73989 -3.422065,-9.32989 -0.490612,-2.58849 -0.498611,-6.81746 -0.01706,-9.01952 1.958784,-8.95724 9.915184,-15.71485 19.429135,-16.501736 10.898946,-0.901438 20.169886,4.604376 25.04107,14.871366 l 1.08774,2.29263 0.81867,-1.81117 c 1.21645,-2.6912 2.38796,-4.51135 4.36533,-6.78237 5.03449,-5.7821 11.02613,-8.614467 18.24419,-8.624375 3.23321,-0.0044 5.0859,0.263919 7.84104,1.135735 4.12061,1.3039 7.22248,3.33515 9.98503,6.53869 7.19928,8.34849 6.34687,19.72202 -2.52213,33.65172 -2.06886,3.24937 -5.80168,8.05709 -10.93521,14.08409 -5.91161,6.94051 -8.80011,10.46782 -11.75738,14.35766 -7.08858,9.32392 -11.85595,17.79593 -14.47824,25.72898 -0.40003,1.21019 -0.81913,2.33786 -0.93135,2.50594 -0.26058,0.39032 -0.953,0.39518 -1.16783,0.008 z"
       style="fill:#FFFFFF;fill-opacity:1;stroke-width:0.264583"
       inkscape:label="Heart" />
  </g>
</svg>
