<svg width="63.603" height="73.104" viewBox="0 0 63.603 73.104" xmlns="http://www.w3.org/2000/svg"><g id="svgGroup" stroke-linecap="round" fill-rule="evenodd" font-size="9pt" stroke="#FFF" stroke-width="0mm" fill="#FFF" style="stroke:#FFF;stroke-width:0mm;fill:#FFF"><path d="M 31.751 73.102 Q 17.401 73.102 8.701 63.152 Q 0.001 53.202 0.001 36.902 Q 0.001 20.602 8.851 10.302 Q 17.701 0.002 31.851 0.002 Q 46.001 0.002 54.801 10.252 Q 63.601 20.502 63.601 35.902 Q 63.601 53.102 54.851 63.102 Q 46.101 73.102 31.751 73.102 Z M 15.101 60.002 Q 21.001 69.102 31.801 69.102 Q 42.601 69.102 48.501 60.052 Q 54.401 51.002 54.401 36.902 Q 54.401 22.802 48.051 13.902 Q 41.701 5.002 31.701 5.002 Q 21.701 5.002 15.451 13.902 Q 9.201 22.802 9.201 36.852 Q 9.201 50.902 15.101 60.002 Z" id="0" vector-effect="non-scaling-stroke"/></g></svg>