<?xml version="1.0" encoding="UTF-8" standalone="no"?>
<svg
   width="112.6"
   height="74.5"
   viewBox="0 0 112.6 74.500002"
   version="1.1"
   id="svg1"
   sodipodi:docname="10.svg"
   inkscape:version="1.4.2 (ebf0e940d0, 2025-05-08)"
   xmlns:inkscape="http://www.inkscape.org/namespaces/inkscape"
   xmlns:sodipodi="http://sodipodi.sourceforge.net/DTD/sodipodi-0.dtd"
   xmlns="http://www.w3.org/2000/svg"
   xmlns:svg="http://www.w3.org/2000/svg">
  <defs
     id="defs1" />
  <sodipodi:namedview
     id="namedview1"
     pagecolor="#000000"
     bordercolor="#000000"
     borderopacity="0.25"
     inkscape:showpageshadow="2"
     inkscape:pageopacity="0.0"
     inkscape:pagecheckerboard="0"
     inkscape:deskcolor="#d1d1d1"
     inkscape:zoom="10.352743"
     inkscape:cx="64.330774"
     inkscape:cy="30.281828"
     inkscape:window-width="1894"
     inkscape:window-height="2094"
     inkscape:window-x="0"
     inkscape:window-y="0"
     inkscape:window-maximized="1"
     inkscape:current-layer="svg1" />
  <g
     id="svgGroup"
     stroke-linecap="round"
     fill-rule="nonzero"
     font-size="12px"
     stroke="#ffffff"
     stroke-width="0"
     fill="#ffffff"
     style="fill:#ffffff;stroke:#ffffff;stroke-width:0"
     transform="translate(0,-0.001)">
    <path
       d="m 3.3,68.501 h 17.5 v -59.6 l -14.9,9.4 q -2.2,1.5 -3.5,1.5 -2.4,0 -2.4,-3 l 0.1,-0.9 21.6,-13.9 q 3,-2 5.4,-2 2.4,0 3.1,3.2 v 65.2 h 13.4 q 1.7,0 2.65,0.85 0.95,0.85 0.95,2.25 0,1.4 -0.9,2.1 H 6 q -3.6,0 -3.6,-2.9 0,-1.5 0.9,-2.2 z"
       id="0"
       vector-effect="non-scaling-stroke" />
    <path
       d="m 80.75,74.501 q -14.35,0 -23.05,-9.95 -8.7,-9.95 -8.7,-26.25 0,-16.3 8.85,-26.6 8.85,-10.3 23,-10.3 14.15,0 22.95,10.25 8.8,10.25 8.8,25.65 0,17.2 -8.75,27.2 -8.75,10 -23.1,10 z M 64.1,61.401 q 5.9,9.1 16.7,9.1 10.8,0 16.7,-9.05 5.9,-9.05 5.9,-23.15 0,-14.1 -6.35,-23 -6.35,-8.9 -16.35,-8.9 -10,0 -16.25,8.9 -6.25,8.9 -6.25,22.95 0,14.05 5.9,23.15 z"
       id="1"
       vector-effect="non-scaling-stroke" />
  </g>
</svg>
