<svg width="94.8" height="73.602" viewBox="0 0 94.8 73.602" xmlns="http://www.w3.org/2000/svg"><g id="svgGroup" stroke-linecap="round" fill-rule="nonzero" font-size="9pt" stroke="#ffffff" stroke-width="0" fill="#ffffff" style="stroke:#ffffff;stroke-width:0;fill:#ffffff"><path d="M 3.3 68.501 L 20.8 68.501 L 20.8 8.901 L 5.9 18.301 Q 3.7 19.801 2.4 19.801 Q 0 19.801 0 16.801 L 0.1 15.901 L 21.7 2.001 Q 24.7 0.001 27.1 0.001 Q 29.5 0.001 30.2 3.201 L 30.2 68.401 L 43.6 68.401 Q 45.3 68.401 46.25 69.251 Q 47.2 70.101 47.2 71.501 Q 47.2 72.901 46.3 73.601 L 6 73.601 Q 2.4 73.601 2.4 70.701 Q 2.4 69.201 3.3 68.501 Z" id="0" vector-effect="non-scaling-stroke"/><path d="M 50.9 68.501 L 68.4 68.501 L 68.4 8.901 L 53.5 18.301 Q 51.3 19.801 50 19.801 Q 47.6 19.801 47.6 16.801 L 47.7 15.901 L 69.3 2.001 Q 72.3 0.001 74.7 0.001 Q 77.1 0.001 77.8 3.201 L 77.8 68.401 L 91.2 68.401 Q 92.9 68.401 93.85 69.251 Q 94.8 70.101 94.8 71.501 Q 94.8 72.901 93.9 73.601 L 53.6 73.601 Q 50 73.601 50 70.701 Q 50 69.201 50.9 68.501 Z" id="1" vector-effect="non-scaling-stroke"/></g></svg>