<svg width="121.701" height="76.502" viewBox="0 0 121.701 76.502" xmlns="http://www.w3.org/2000/svg"><g id="svgGroup" stroke-linecap="round" fill-rule="nonzero" font-size="9pt" stroke="#ffffff" stroke-width="0" fill="#ffffff" style="stroke:#ffffff;stroke-width:0;fill:#ffffff"><path d="M 3.3 68.501 L 20.8 68.501 L 20.8 8.901 L 5.9 18.301 Q 3.7 19.801 2.4 19.801 Q 0 19.801 0 16.801 L 0.1 15.901 L 21.7 2.001 Q 24.7 0.001 27.1 0.001 Q 29.5 0.001 30.2 3.201 L 30.2 68.401 L 43.6 68.401 Q 45.3 68.401 46.25 69.251 Q 47.2 70.101 47.2 71.501 Q 47.2 72.901 46.3 73.601 L 6 73.601 Q 2.4 73.601 2.4 70.701 Q 2.4 69.201 3.3 68.501 Z" id="0" vector-effect="non-scaling-stroke"/><path d="M 116.2 55.601 L 116.1 53.901 Q 116.7 52.801 118.7 52.801 Q 121.7 52.801 121.7 60.051 Q 121.7 67.301 115.25 71.901 Q 108.8 76.501 100.75 76.501 Q 92.7 76.501 82.4 68.901 Q 75.6 73.301 67.1 73.301 Q 62.4 73.301 59.4 71.151 Q 56.4 69.001 56.4 64.701 Q 56.4 60.401 59.4 58.051 Q 62.4 55.701 68.4 55.701 Q 72 55.701 77.1 58.801 Q 78.7 59.701 82 61.901 Q 90.7 53.501 96.8 43.151 Q 102.9 32.801 102.9 23.751 Q 102.9 14.701 97.75 10.251 Q 92.6 5.801 85.65 5.801 Q 78.7 5.801 73.4 10.251 Q 68.1 14.701 68.1 22.101 Q 68.1 24.001 68.7 25.801 Q 68.1 27.001 66 27.001 Q 63.9 27.001 62.4 25.501 Q 60.9 24.001 60.9 21.501 Q 60.9 12.701 67.55 6.801 Q 74.2 0.901 85.7 0.901 Q 97.2 0.901 104.65 6.551 Q 112.1 12.201 112.1 24.701 Q 112.1 33.801 103.85 46.251 Q 95.6 58.701 87 65.201 Q 94.6 69.901 100.15 69.901 Q 105.7 69.901 109 68.251 Q 112.3 66.601 113.6 64.201 Q 116.4 59.401 116.2 55.601 Z M 77.8 65.401 Q 71 60.201 68.1 60.201 Q 65.2 60.201 63.55 61.401 Q 61.9 62.601 61.9 64.501 Q 61.9 68.701 67.25 68.701 Q 72.6 68.701 77.8 65.401 Z" id="1" vector-effect="non-scaling-stroke"/></g></svg>