<svg width="103.902" height="80.702" viewBox="0 0 103.902 80.702" xmlns="http://www.w3.org/2000/svg"><g id="svgGroup" stroke-linecap="round" fill-rule="nonzero" font-size="9pt" stroke="#ffffff" stroke-width="0" fill="#ffffff" style="stroke:#ffffff;stroke-width:0;fill:#ffffff"><path d="M 3.3 68.501 L 20.8 68.501 L 20.8 8.901 L 5.9 18.301 Q 3.7 19.801 2.4 19.801 Q 0 19.801 0 16.801 L 0.1 15.901 L 21.7 2.001 Q 24.7 0.001 27.1 0.001 Q 29.5 0.001 30.2 3.201 L 30.2 68.401 L 43.6 68.401 Q 45.3 68.401 46.25 69.251 Q 47.2 70.101 47.2 71.501 Q 47.2 72.901 46.3 73.601 L 6 73.601 Q 2.4 73.601 2.4 70.701 Q 2.4 69.201 3.3 68.501 Z" id="0" vector-effect="non-scaling-stroke"/><path d="M 51.2 63.101 L 53.2 63.701 Q 53.2 68.901 59.9 72.301 Q 66.6 75.701 75.05 75.701 Q 83.5 75.701 89.1 71.001 Q 94.7 66.301 94.7 57.201 Q 94.7 48.101 88.3 43.551 Q 81.9 39.001 71.9 39.001 Q 69.6 39.001 69.6 37.001 Q 69.6 35.901 70.35 35.351 Q 71.1 34.801 71.9 34.801 Q 81.8 34.801 86.9 31.201 Q 92 27.601 92 20.951 Q 92 14.301 87.8 10.651 Q 83.6 7.001 76.3 7.001 Q 69 7.001 64.1 9.951 Q 59.2 12.901 59.2 18.801 Q 59.2 20.701 59.8 22.501 Q 59.2 23.701 57.1 23.701 Q 55 23.701 53.5 22.201 Q 52 20.701 52 18.201 Q 52 11.501 58.4 6.801 Q 64.8 2.101 76.4 2.101 Q 88 2.101 94.6 7.051 Q 101.2 12.001 101.2 21.401 Q 101.2 25.001 99.7 27.901 Q 98.2 30.801 96.3 32.401 Q 94.4 34.001 92 35.201 Q 88.4 36.801 86 37.101 Q 103.9 42.001 103.9 57.501 Q 103.9 68.401 95.7 74.551 Q 87.5 80.701 76 80.701 Q 64.5 80.701 57.05 76.201 Q 49.6 71.701 49.6 66.301 Q 49.6 63.101 51.2 63.101 Z" id="1" vector-effect="non-scaling-stroke"/></g></svg>