<svg width="65.302" height="75.602" viewBox="0 0 65.302 75.602" xmlns="http://www.w3.org/2000/svg"><g id="svgGroup" stroke-linecap="round" fill-rule="evenodd" font-size="9pt" stroke="#FFF" stroke-width="0mm" fill="#FFF" style="stroke:#FFF;stroke-width:0mm;fill:#FFF"><path d="M 59.801 54.701 L 59.701 53.001 Q 60.301 51.901 62.301 51.901 Q 65.301 51.901 65.301 59.151 Q 65.301 66.401 58.851 71.001 Q 52.401 75.601 44.351 75.601 Q 36.301 75.601 26.001 68.001 Q 19.201 72.401 10.701 72.401 Q 6.001 72.401 3.001 70.251 Q 0.001 68.101 0.001 63.801 Q 0.001 59.501 3.001 57.151 Q 6.001 54.801 12.001 54.801 Q 15.601 54.801 20.701 57.901 Q 22.301 58.801 25.601 61.001 Q 34.301 52.601 40.401 42.251 Q 46.501 31.901 46.501 22.851 Q 46.501 13.801 41.351 9.351 Q 36.201 4.901 29.251 4.901 Q 22.301 4.901 17.001 9.351 Q 11.701 13.801 11.701 21.201 Q 11.701 23.101 12.301 24.901 Q 11.701 26.101 9.601 26.101 Q 7.501 26.101 6.001 24.601 Q 4.501 23.101 4.501 20.601 Q 4.501 11.801 11.151 5.901 Q 17.801 0.001 29.301 0.001 Q 40.801 0.001 48.251 5.651 Q 55.701 11.301 55.701 23.801 Q 55.701 32.901 47.451 45.351 Q 39.201 57.801 30.601 64.301 Q 38.201 69.001 43.751 69.001 Q 49.301 69.001 52.601 67.351 Q 55.901 65.701 57.201 63.301 Q 60.001 58.501 59.801 54.701 Z M 21.401 64.501 Q 14.601 59.301 11.701 59.301 Q 8.801 59.301 7.151 60.501 Q 5.501 61.701 5.501 63.601 Q 5.501 67.801 10.851 67.801 Q 16.201 67.801 21.401 64.501 Z" id="0" vector-effect="non-scaling-stroke"/></g></svg>