<svg width="54.302" height="78.601" viewBox="0 0 54.302 78.601" xmlns="http://www.w3.org/2000/svg"><g id="svgGroup" stroke-linecap="round" fill-rule="evenodd" font-size="9pt" stroke="#FFF" stroke-width="0mm" fill="#FFF" style="stroke:#FFF;stroke-width:0mm;fill:#FFF"><path d="M 1.6 61.001 L 3.6 61.601 Q 3.6 66.801 10.3 70.201 Q 17 73.601 25.45 73.601 Q 33.9 73.601 39.5 68.901 Q 45.1 64.201 45.1 55.101 Q 45.1 46.001 38.7 41.451 Q 32.3 36.901 22.3 36.901 Q 20 36.901 20 34.901 Q 20 33.801 20.75 33.251 Q 21.5 32.701 22.3 32.701 Q 32.2 32.701 37.3 29.101 Q 42.4 25.501 42.4 18.851 Q 42.4 12.201 38.2 8.551 Q 34 4.901 26.7 4.901 Q 19.4 4.901 14.5 7.851 Q 9.6 10.801 9.6 16.701 Q 9.6 18.601 10.2 20.401 Q 9.6 21.601 7.5 21.601 Q 5.4 21.601 3.9 20.101 Q 2.4 18.601 2.4 16.101 Q 2.4 9.401 8.8 4.701 Q 15.2 0.001 26.8 0.001 Q 38.4 0.001 45 4.951 Q 51.6 9.901 51.6 19.301 Q 51.6 22.901 50.1 25.801 Q 48.6 28.701 46.7 30.301 Q 44.8 31.901 42.4 33.101 Q 38.8 34.701 36.4 35.001 Q 54.3 39.901 54.3 55.401 Q 54.3 66.301 46.1 72.451 Q 37.9 78.601 26.4 78.601 Q 14.9 78.601 7.45 74.101 Q 0 69.601 0 64.201 Q 0 61.001 1.6 61.001 Z" id="0" vector-effect="non-scaling-stroke"/></g></svg>