<svg width="63.801" height="71.4" viewBox="0 0 63.801 71.4" xmlns="http://www.w3.org/2000/svg"><g id="svgGroup" stroke-linecap="round" fill-rule="evenodd" font-size="9pt" stroke="#FFF" stroke-width="0mm" fill="#FFF" style="stroke:#FFF;stroke-width:0mm;fill:#FFF"><path d="M 30.9 66.3 L 41.6 66.3 L 41.6 55.1 Q 38.8 54.4 30.4 51.1 Q 22 47.8 16.9 47.8 Q 15.6 47.8 13.8 48 Q 9.4 53.5 0.6 54.6 Q 0 53.7 0 52.5 Q 0 47.4 8.4 45 Q 12.8 39.8 14.65 28.5 Q 16.5 17.2 16.5 7.7 Q 16.5 4.2 19.65 4.2 Q 22.8 4.2 22.8 7.8 Q 22.8 31.6 16.4 43.8 L 17.7 43.8 Q 24.8 43.8 34.5 47.2 Q 38.7 48.6 41.3 49.2 L 41.3 9.8 Q 41.3 5 43.1 2.5 Q 44.9 0 47 0 Q 48.9 0 49.7 0.5 Q 50.5 1 50.6 1 L 50.6 50 Q 57.8 49.5 57.8 42.8 Q 57.8 40.6 57.1 39.7 Q 57.7 38.2 60.2 38.2 Q 63.8 38.2 63.8 43.95 Q 63.8 49.7 60.3 52.7 Q 56.8 55.7 50.7 56 L 50.7 66.2 L 57.8 66.2 Q 59.5 66.2 60.45 67.05 Q 61.4 67.9 61.4 69.2 Q 61.4 70.5 60.5 71.4 L 33.6 71.4 Q 30 71.4 30 68.5 Q 30 67.2 30.9 66.3 Z" id="0" vector-effect="non-scaling-stroke"/></g></svg>