<svg width="50.302" height="79.301" viewBox="0 0 50.302 79.301" xmlns="http://www.w3.org/2000/svg"><g id="svgGroup" stroke-linecap="round" fill-rule="evenodd" font-size="9pt" stroke="#FFF" stroke-width="0mm" fill="#FFF" style="stroke:#FFF;stroke-width:0mm;fill:#FFF"><path d="M 8.8 38.5 L 9.4 19.9 Q 9.4 13.9 7.4 9.1 Q 3.6 7.8 1.7 4.6 Q 1 3.4 1 2 Q 1 0.6 1.6 0 Q 1.7 0 2.5 0.2 Q 7.9 1 10.3 3.3 Q 17.4 5.4 25.2 5.4 Q 33 5.4 37.45 4.55 Q 41.9 3.7 43.7 2.75 Q 45.5 1.8 46.95 0.95 Q 48.4 0.1 49.2 0.1 Q 49.8 1 49.8 2.2 Q 49.8 6.5 43.4 9.7 Q 37 12.9 26.1 12.9 Q 20.1 12.9 14.6 11.6 Q 15.6 16.6 15.6 20.25 Q 15.6 23.9 15.35 29.65 Q 15.1 35.4 15.1 35.6 Q 20.3 32.8 25.25 32.8 Q 30.2 32.8 34.35 34.1 Q 38.5 35.4 42.15 38 Q 45.8 40.6 48.05 45.3 Q 50.3 50 50.3 56.1 Q 50.3 67 42.1 73.15 Q 33.9 79.3 21.3 79.3 Q 12.6 79.3 6.3 74.8 Q 0 70.3 0 64.9 Q 0 61.7 1.6 61.7 L 3.6 62.3 Q 3.6 67.6 8.95 70.95 Q 14.3 74.3 22.1 74.3 Q 29.9 74.3 35.5 69.6 Q 41.1 64.9 41.1 56.05 Q 41.1 47.2 36.45 42.6 Q 31.8 38 25.8 38 Q 19.4 38 12.8 40.6 Q 10.5 41.5 10.1 41.5 Q 8.8 41.5 8.8 38.5 Z" id="0" vector-effect="non-scaling-stroke"/></g></svg>