<?xml version="1.0" encoding="UTF-8" standalone="no"?>
<svg
   width="50.799999"
   height="86.682358"
   viewBox="0 0 50.8 86.682354"
   version="1.1"
   id="svg1"
   sodipodi:docname="6.svg"
   inkscape:version="1.4.2 (ebf0e940d0, 2025-05-08)"
   xmlns:inkscape="http://www.inkscape.org/namespaces/inkscape"
   xmlns:sodipodi="http://sodipodi.sourceforge.net/DTD/sodipodi-0.dtd"
   xmlns="http://www.w3.org/2000/svg"
   xmlns:svg="http://www.w3.org/2000/svg">
  <defs
     id="defs1" />
  <sodipodi:namedview
     id="namedview1"
     pagecolor="#000000"
     bordercolor="#000000"
     borderopacity="0.25"
     inkscape:showpageshadow="2"
     inkscape:pageopacity="0.0"
     inkscape:pagecheckerboard="0"
     inkscape:deskcolor="#d1d1d1"
     inkscape:zoom="4.4967971"
     inkscape:cx="-73.163185"
     inkscape:cy="-97.958611"
     inkscape:window-width="3804"
     inkscape:window-height="2094"
     inkscape:window-x="0"
     inkscape:window-y="0"
     inkscape:window-maximized="1"
     inkscape:current-layer="svg1" />
  <g
     id="svgGroup"
     stroke-linecap="round"
     fill-rule="evenodd"
     font-size="12px"
     stroke="#FFF"
     stroke-width="0mm"
     fill="#FFF"
     style="fill:#ffffff;stroke:#ffffff;stroke-width:0mm">
    <path
       d="M 49.8,4.1 47.1,4 Q 39.6,4 31.25,8.95 22.9,13.9 16.65,22.25 10.4,30.6 9.1,39.6 15.5,31.9 27,31.9 q 5.3,0 9.55,1.5 4.25,1.5 6.85,3.85 2.6,2.35 4.3,5.55 3,5.6 3,13 0,10.2 -6.8,16.55 Q 37.1,78.7 25.7,78.7 14.3,78.7 7.15,71.1 0,63.5 0,48.2 0,35.5 6.9,24.25 13.8,13 24.8,6.5 35.8,0 47.6,0 q 1.5,0 2.35,0.7 0.85,0.7 0.85,1.65 0,0.95 -1,1.75 z M 8.5,55.4 q 0,8.1 5,13.7 5,5.6 12.35,5.6 7.35,0 12,-5.3 Q 42.5,64.1 42.5,55.65 42.5,47.2 38.55,42 34.6,36.8 27.3,36.8 17.9,36.8 13.2,42.05 8.5,47.3 8.5,55.4 Z"
       id="0"
       vector-effect="non-scaling-stroke" />
    <path
       style="fill:#ffffff"
       id="path1"
       d="m 14.769793,86.68236 c 2.601773,-0.498003 5.252273,-0.689089 7.888572,-0.896742 1.562638,-0.123085 3.124444,-0.262058 4.689632,-0.346745 4.472059,-0.241968 5.964696,-0.19472 10.424504,-0.216156 5.731401,0.175161 3.025222,0.0396 8.120118,0.373783 0,0 -7.291782,-5.305099 -7.291782,-5.305099 v 0 c -4.379942,0.278629 -2.010267,0.144999 -7.110028,0.382698 -4.369799,0.119911 -6.037838,0.198527 -10.487167,0.180568 -1.765481,-0.0071 -3.530525,-0.05728 -5.295783,-0.08621 -3.153897,-0.05169 -4.519671,-0.02746 -7.5396652,-0.238698 C 7.4450047,80.479173 6.7254541,80.385719 6.0040843,80.3137 Z" />
  </g>
</svg>
