<svg width="72.602" height="80.901" viewBox="0 0 72.602 80.901" xmlns="http://www.w3.org/2000/svg"><g id="svgGroup" stroke-linecap="round" fill-rule="evenodd" font-size="9pt" stroke="#FFF" stroke-width="0mm" fill="#FFF" style="stroke:#FFF;stroke-width:0mm;fill:#FFF"><path d="M 8.602 15.8 Q 8.602 17.3 9.202 18.7 Q 8.202 20.3 5.702 20.3 Q 3.202 20.3 1.602 18.4 Q 0.002 16.5 0.002 12.9 Q 0.002 7.3 4.502 3.65 Q 9.002 0 16.352 0 Q 23.702 0 30.452 2.4 Q 37.202 4.8 43.502 7.8 Q 49.802 10.8 53.602 11.5 Q 63.502 3.7 72.002 3.7 Q 72.602 4.6 72.602 5.8 Q 72.602 10.3 66.552 13.9 Q 60.502 17.5 55.302 17.5 Q 46.502 28 41.352 43.4 Q 36.202 58.8 36.202 73.9 Q 36.202 79 33.602 80.3 Q 32.202 80.9 30.102 80.9 Q 23.402 80.9 23.402 73.8 Q 23.402 66.8 29.402 49.2 Q 32.302 40.9 37.202 31.8 Q 42.102 22.7 47.702 16.5 Q 44.902 15.6 39.202 12.95 Q 33.502 10.3 28.352 8.45 Q 23.202 6.6 18.652 6.6 Q 14.102 6.6 11.352 9.2 Q 8.602 11.8 8.602 15.8 Z" id="0" vector-effect="non-scaling-stroke"/></g></svg>