<svg width="58.002" height="78.602" viewBox="0 0 58.002 78.602" xmlns="http://www.w3.org/2000/svg"><g id="svgGroup" stroke-linecap="round" fill-rule="evenodd" font-size="9pt" stroke="#FFF" stroke-width="0mm" fill="#FFF" style="stroke:#FFF;stroke-width:0mm;fill:#FFF"><path d="M 49.8 72.451 Q 41.6 78.601 29 78.601 Q 16.4 78.601 8.2 72.451 Q 0 66.301 0 55.401 Q 0 50.801 1.5 47.001 Q 3 43.201 4.75 41.201 Q 6.5 39.201 9 37.601 Q 12 35.801 14.5 35.001 Q 12 34.401 8.9 32.401 Q 2.7 28.101 2.7 19.001 Q 2.7 9.901 9.8 4.951 Q 16.9 0.001 29.1 0.001 Q 41.3 0.001 48.3 4.951 Q 55.3 9.901 55.3 19.301 Q 55.3 22.901 54.1 25.851 Q 52.9 28.801 51.35 30.401 Q 49.8 32.001 47.9 33.101 Q 45.5 34.601 43.5 35.001 Q 46 35.801 48.75 37.501 Q 51.5 39.201 53.25 41.201 Q 55 43.201 56.5 47.001 Q 58 50.801 58 55.401 Q 58 66.301 49.8 72.451 Z M 9.2 55.601 Q 9.2 64.601 14.9 69.601 Q 20.6 74.601 29.15 74.601 Q 37.7 74.601 43.25 69.651 Q 48.8 64.701 48.8 55.651 Q 48.8 46.601 43.15 41.701 Q 37.5 36.801 29 36.801 Q 20.5 36.801 14.85 41.701 Q 9.2 46.601 9.2 55.601 Z M 46.1 19.301 Q 46.1 11.801 41.4 7.901 Q 36.7 4.001 29.05 4.001 Q 21.4 4.001 16.65 7.851 Q 11.9 11.701 11.9 19.301 Q 11.9 25.101 16.25 28.951 Q 20.6 32.801 28.95 32.801 Q 37.3 32.801 41.7 28.951 Q 46.1 25.101 46.1 19.301 Z" id="0" vector-effect="non-scaling-stroke"/></g></svg>