<?xml version="1.0" encoding="UTF-8" standalone="no"?>
<svg
   width="50.8"
   height="78.702"
   viewBox="0 0 50.8 78.702"
   version="1.1"
   id="svg1"
   sodipodi:docname="9.svg"
   inkscape:version="1.4.2 (ebf0e940d0, 2025-05-08)"
   xmlns:inkscape="http://www.inkscape.org/namespaces/inkscape"
   xmlns:sodipodi="http://sodipodi.sourceforge.net/DTD/sodipodi-0.dtd"
   xmlns="http://www.w3.org/2000/svg"
   xmlns:svg="http://www.w3.org/2000/svg">
  <defs
     id="defs1" />
  <sodipodi:namedview
     id="namedview1"
     pagecolor="#000000"
     bordercolor="#000000"
     borderopacity="0.25"
     inkscape:showpageshadow="2"
     inkscape:pageopacity="0.0"
     inkscape:pagecheckerboard="0"
     inkscape:deskcolor="#d1d1d1"
     inkscape:zoom="12.718863"
     inkscape:cx="25.395352"
     inkscape:cy="39.351002"
     inkscape:window-width="3804"
     inkscape:window-height="2094"
     inkscape:window-x="0"
     inkscape:window-y="0"
     inkscape:window-maximized="1"
     inkscape:current-layer="svg1" />
  <g
     id="svgGroup"
     stroke-linecap="round"
     fill-rule="evenodd"
     font-size="9pt"
     stroke="#FFF"
     stroke-width="0mm"
     fill="#FFF"
     style="stroke:#FFF;stroke-width:0mm;fill:#FFF">
    <path
       d="M 1 74.601 L 3.7 74.701 Q 11.2 74.701 19.55 69.751 Q 27.9 64.801 34.15 56.451 Q 40.4 48.101 41.7 39.101 Q 35.3 46.801 23.8 46.801 Q 18.5 46.801 14.25 45.301 Q 10 43.801 7.4 41.451 Q 4.8 39.101 3.1 35.901 Q 0.1 30.301 0.1 22.901 Q 0.1 12.701 6.9 6.351 Q 13.7 0.001 25.1 0.001 Q 36.5 0.001 43.65 7.601 Q 50.8 15.201 50.8 30.501 Q 50.8 43.201 43.9 54.451 Q 37 65.701 26 72.201 Q 15 78.701 3.2 78.701 Q 1.7 78.701 0.85 78.001 Q 0 77.301 0 76.351 Q 0 75.401 1 74.601 Z M 42.3 23.301 Q 42.3 15.201 37.3 9.601 Q 32.3 4.001 24.95 4.001 Q 17.6 4.001 12.95 9.301 Q 8.3 14.601 8.3 23.051 Q 8.3 31.501 12.25 36.701 Q 16.2 41.901 23.5 41.901 Q 32.9 41.901 37.6 36.651 Q 42.3 31.401 42.3 23.301 Z"
       id="0"
       vector-effect="non-scaling-stroke" />
  </g>
  <path
     style="fill:#ffffff"
     id="path1"
     d="m 15.032922,65.632673 c 0.385914,-0.05174 0.770228,-0.117267 1.157742,-0.15521 0.79843,-0.07818 1.598563,-0.139025 2.398991,-0.193045 3.956222,-0.267005 5.035742,-0.284825 9.327897,-0.434948 8.902684,-0.311383 5.520368,-0.215121 14.970031,-0.322477 2.625383,0.02233 5.250767,0.04465 7.876151,0.06698 0,0 -4.763065,-3.458902 -4.763065,-3.458902 v 0 c -2.544517,0.03417 -5.089034,0.06835 -7.63355,0.102518 C 29.073456,61.003483 31.147443,61.139051 22.07944,60.591111 17.331372,60.304206 12.576036,59.989977 7.8569255,59.373781 7.2850787,59.299112 6.7171343,59.19711 6.1472387,59.108774 Z" />
</svg>
