<svg width="88.301" height="96.301" viewBox="0 0 88.301 96.301" xmlns="http://www.w3.org/2000/svg"><g id="svgGroup" stroke-linecap="round" fill-rule="evenodd" font-size="9pt" stroke="#FFF" stroke-width="0mm" fill="#FFF"><path d="M 87.401 65.8 L 73.201 65.8 L 78.901 84.8 Q 79.101 85.5 79.101 86.6 Q 79.101 87.7 77.701 89.3 Q 76.301 90.9 74.801 90.9 Q 72.001 90.9 70.401 89.5 L 63.301 65.8 L 37.801 65.8 L 32.801 79.4 Q 30.201 86.3 25.301 91.3 Q 20.401 96.3 12.601 96.3 Q 6.701 96.3 3.351 93.2 Q 0.001 90.1 0.001 84.2 Q 0.001 78.3 2.851 73.55 Q 5.701 68.8 10.401 66.1 Q 19.801 60.7 31.401 60.7 L 46.001 19.5 Q 47.001 16.6 48.101 15.2 Q 45.001 4.8 45.001 3.75 Q 45.001 2.7 46.451 1.35 Q 47.901 0 49.401 0 Q 52.301 0 53.901 1.4 L 71.601 60.7 L 84.701 60.6 Q 86.401 60.6 87.351 61.45 Q 88.301 62.3 88.301 63.6 Q 88.301 64.9 87.401 65.8 Z M 61.701 60.7 L 51.901 22.9 L 39.701 60.7 L 61.701 60.7 Z M 25.601 77 L 29.501 65.9 Q 18.501 65.9 12.051 71.1 Q 5.601 76.3 5.601 84.8 Q 5.601 88.3 7.551 90.2 Q 9.501 92.1 12.601 92.1 Q 20.101 92.1 25.601 77 Z" id="0" vector-effect="non-scaling-stroke"/></g></svg>
