<svg width="69.402" height="88.102" viewBox="0 0 69.402 88.102" xmlns="http://www.w3.org/2000/svg"><g id="svgGroup" stroke-linecap="round" fill-rule="evenodd" font-size="9pt" stroke="#FFF" stroke-width="0mm" fill="#FFF" style="stroke:#FFF;stroke-width:0mm;fill:#FFF"><path d="M 28.6 1.401 L 28.6 8.201 L 31.6 8.101 Q 46.5 8.101 55.6 13.201 Q 64.7 18.301 64.7 27.701 Q 64.7 34.701 61.2 38.901 Q 58.2 42.601 55.8 43.801 L 54.8 44.401 Q 56.5 44.701 59.45 46.351 Q 62.4 48.001 64.3 49.951 Q 66.2 51.901 67.8 55.601 Q 69.4 59.301 69.4 63.801 Q 69.4 75.701 59.4 81.901 Q 49.4 88.101 30.5 88.101 Q 16.9 88.101 8.45 81.501 Q 0 74.901 0 66.501 Q 0 65.101 0.85 64.201 Q 1.7 63.301 2.85 63.301 Q 4 63.301 4.6 63.901 Q 4.6 70.101 8.7 74.701 Q 12.8 79.301 19.6 81.501 L 19.6 16.101 Q 15.2 18.101 12.5 20.851 Q 9.8 23.601 9.8 26.101 Q 9.8 28.601 10.4 30.401 Q 9.8 31.601 7.7 31.601 Q 5.6 31.601 4.1 30.101 Q 2.6 28.601 2.6 26.101 Q 2.6 21.401 7.3 16.801 Q 12 12.201 19.6 9.901 L 19.6 6.101 Q 19.6 3.101 21.1 1.551 Q 22.6 0.001 24.8 0.001 Q 27 0.001 28.6 1.401 Z M 29 83.101 L 30.5 83.101 Q 45.4 83.101 52.8 78.401 Q 60.2 73.701 60.2 63.801 Q 60.2 46.801 37.4 46.801 Q 36.4 46.801 35.7 45.901 Q 35 45.001 35 43.501 Q 35 41.601 37.4 41.601 Q 48.6 41.601 52.4 37.001 Q 55.5 33.301 55.5 27.701 Q 55.5 20.601 48.95 16.851 Q 42.4 13.101 32.1 13.001 Q 30.2 13.001 29 13.301 L 29 83.101 Z" id="0" vector-effect="non-scaling-stroke"/></g></svg>