<svg width="63.801" height="79.103" viewBox="0 0 63.801 79.103" xmlns="http://www.w3.org/2000/svg"><g id="svgGroup" stroke-linecap="round" fill-rule="evenodd" font-size="9pt" stroke="#FFF" stroke-width="0mm" fill="#FFF" style="stroke:#FFF;stroke-width:0mm;fill:#FFF"><path d="M 59.201 50.901 Q 59.701 50.301 60.951 50.301 Q 62.201 50.301 63.001 51.201 Q 63.801 52.101 63.801 54.601 Q 63.801 57.101 62.151 61.251 Q 60.501 65.401 57.301 69.551 Q 54.101 73.701 48.451 76.401 Q 42.801 79.101 35.801 79.101 Q 19.601 79.101 9.801 68.651 Q 0.001 58.201 0.001 38.851 Q 0.001 19.501 9.251 9.751 Q 18.501 0.001 33.501 0.001 Q 43.201 0.001 48.701 5.001 Q 54.201 10.001 54.201 16.101 Q 54.201 18.601 52.701 20.101 Q 51.201 21.601 49.701 21.601 Q 46.901 21.601 45.901 20.401 Q 46.501 18.901 46.501 16.701 Q 46.501 11.301 43.051 8.101 Q 39.601 4.901 33.001 4.901 Q 23.101 4.901 16.151 14.351 Q 9.201 23.801 9.201 39.401 Q 9.201 55.001 16.901 64.551 Q 24.601 74.101 35.401 74.101 Q 46.201 74.101 52.701 67.551 Q 59.201 61.001 59.201 50.901 Z" id="0" vector-effect="non-scaling-stroke"/></g></svg>