<svg width="67.802" height="87.102" viewBox="0 0 67.802 87.102" xmlns="http://www.w3.org/2000/svg"><g id="svgGroup" stroke-linecap="round" fill-rule="evenodd" font-size="9pt" stroke="#000" stroke-width="0mm" fill="#ffffff" style="stroke:#000;stroke-width:0mm;fill:#ffffff"><path d="M 17.6 80.401 L 17.6 16.001 Q 7.8 18.501 7.8 24.201 Q 7.8 26.101 8.4 27.901 Q 7.8 29.101 5.7 29.101 Q 3.6 29.101 2.1 27.601 Q 0.6 26.101 0.6 23.601 Q 0.6 19.101 5.15 15.701 Q 9.7 12.301 17.6 10.701 L 17.6 6.101 Q 17.6 3.101 19.1 1.551 Q 20.6 0.001 22.8 0.001 Q 25 0.001 26.6 1.401 L 26.6 9.701 Q 27.6 9.601 29.6 9.601 Q 46.2 9.601 56.7 19.001 Q 61.9 23.801 64.85 31.751 Q 67.8 39.701 67.8 50.201 Q 67.8 68.401 57.05 77.751 Q 46.3 87.101 28.5 87.101 Q 15 87.101 7.5 81.201 Q 0 75.301 0 67.501 Q 0 66.101 0.85 65.201 Q 1.7 64.301 2.85 64.301 Q 4 64.301 4.6 64.901 Q 4.6 70.401 8.15 74.401 Q 11.7 78.401 17.6 80.401 Z M 30.1 14.501 L 27 14.601 L 27 82.101 L 28.5 82.101 Q 42.2 82.101 50.4 74.501 Q 58.6 66.901 58.6 49.951 Q 58.6 33.001 50.9 23.751 Q 43.2 14.501 30.1 14.501 Z" id="0" vector-effect="non-scaling-stroke"/></g></svg>