<svg width="29.1" height="71.4" viewBox="0 0 29.1 71.4" xmlns="http://www.w3.org/2000/svg"><g id="svgGroup" stroke-linecap="round" fill-rule="evenodd" font-size="9pt" stroke="#000" stroke-width="0mm" fill="#ffffff" style="stroke:#000;stroke-width:0mm;fill:#ffffff"><path d="M 29.1 71.4 L 0 71.4 L 0 67.2 L 1.3 67.2 Q 3.6 67.2 5.45 66.7 Q 7.3 66.2 8.4 64.65 Q 9.5 63.1 9.5 60 L 9.5 11.4 Q 9.5 8.2 8.4 6.7 Q 7.3 5.2 5.45 4.7 Q 3.6 4.2 1.3 4.2 L 0 4.2 L 0 0 L 29.1 0 L 29.1 4.2 L 27.8 4.2 Q 25.6 4.2 23.7 4.7 Q 21.8 5.2 20.7 6.7 Q 19.6 8.2 19.6 11.4 L 19.6 60 Q 19.6 63.1 20.7 64.65 Q 21.8 66.2 23.7 66.7 Q 25.6 67.2 27.8 67.2 L 29.1 67.2 L 29.1 71.4 Z" id="0" vector-effect="non-scaling-stroke"/></g></svg>