<svg width="102.5" height="71.4" viewBox="0 0 102.5 71.4" xmlns="http://www.w3.org/2000/svg"><g id="svgGroup" stroke-linecap="round" fill-rule="evenodd" font-size="9pt" stroke="#000" stroke-width="0mm" fill="#ffffff" style="stroke:#000;stroke-width:0mm;fill:#ffffff"><path d="M 29.1 71.4 L 0 71.4 L 0 67.2 L 1.3 67.2 Q 3.6 67.2 5.45 66.7 Q 7.3 66.2 8.4 64.65 Q 9.5 63.1 9.5 60 L 9.5 11.4 Q 9.5 8.2 8.4 6.7 Q 7.3 5.2 5.45 4.7 Q 3.6 4.2 1.3 4.2 L 0 4.2 L 0 0 L 29.1 0 L 29.1 4.2 L 27.8 4.2 Q 25.6 4.2 23.7 4.7 Q 21.8 5.2 20.7 6.7 Q 19.6 8.2 19.6 11.4 L 19.6 60 Q 19.6 63.1 20.7 64.65 Q 21.8 66.2 23.7 66.7 Q 25.6 67.2 27.8 67.2 L 29.1 67.2 L 29.1 71.4 Z" id="0" vector-effect="non-scaling-stroke"/><path d="M 65.8 71.4 L 36.7 71.4 L 36.7 67.2 L 38 67.2 Q 40.3 67.2 42.15 66.7 Q 44 66.2 45.1 64.65 Q 46.2 63.1 46.2 60 L 46.2 11.4 Q 46.2 8.2 45.1 6.7 Q 44 5.2 42.15 4.7 Q 40.3 4.2 38 4.2 L 36.7 4.2 L 36.7 0 L 65.8 0 L 65.8 4.2 L 64.5 4.2 Q 62.3 4.2 60.4 4.7 Q 58.5 5.2 57.4 6.7 Q 56.3 8.2 56.3 11.4 L 56.3 60 Q 56.3 63.1 57.4 64.65 Q 58.5 66.2 60.4 66.7 Q 62.3 67.2 64.5 67.2 L 65.8 67.2 L 65.8 71.4 Z" id="1" vector-effect="non-scaling-stroke"/><path d="M 102.5 71.4 L 73.4 71.4 L 73.4 67.2 L 74.7 67.2 Q 77 67.2 78.85 66.7 Q 80.7 66.2 81.8 64.65 Q 82.9 63.1 82.9 60 L 82.9 11.4 Q 82.9 8.2 81.8 6.7 Q 80.7 5.2 78.85 4.7 Q 77 4.2 74.7 4.2 L 73.4 4.2 L 73.4 0 L 102.5 0 L 102.5 4.2 L 101.2 4.2 Q 99 4.2 97.1 4.7 Q 95.2 5.2 94.1 6.7 Q 93 8.2 93 11.4 L 93 60 Q 93 63.1 94.1 64.65 Q 95.2 66.2 97.1 66.7 Q 99 67.2 101.2 67.2 L 102.5 67.2 L 102.5 71.4 Z" id="2" vector-effect="non-scaling-stroke"/></g></svg>