<svg width="100.4" height="71.4" viewBox="0 0 100.4 71.4" xmlns="http://www.w3.org/2000/svg"><g id="svgGroup" stroke-linecap="round" fill-rule="evenodd" font-size="9pt" stroke="#000" stroke-width="0mm" fill="#ffffff" style="stroke:#000;stroke-width:0mm;fill:#ffffff"><path d="M 29.1 71.4 L 0 71.4 L 0 67.2 L 1.3 67.2 Q 3.6 67.2 5.45 66.7 Q 7.3 66.2 8.4 64.65 Q 9.5 63.1 9.5 60 L 9.5 11.4 Q 9.5 8.2 8.4 6.7 Q 7.3 5.2 5.45 4.7 Q 3.6 4.2 1.3 4.2 L 0 4.2 L 0 0 L 29.1 0 L 29.1 4.2 L 27.8 4.2 Q 25.6 4.2 23.7 4.7 Q 21.8 5.2 20.7 6.7 Q 19.6 8.2 19.6 11.4 L 19.6 60 Q 19.6 63.1 20.7 64.65 Q 21.8 66.2 23.7 66.7 Q 25.6 67.2 27.8 67.2 L 29.1 67.2 L 29.1 71.4 Z" id="0" vector-effect="non-scaling-stroke"/><path d="M 62.9 71.4 L 41.3 9.5 Q 40.6 7.4 39.7 6.25 Q 38.8 5.1 37.5 4.65 Q 36.2 4.2 34.2 4.2 L 32.9 4.2 L 32.9 0 L 60.4 0 L 60.4 4.2 L 58.1 4.2 Q 55.1 4.2 53.6 5.35 Q 52.1 6.5 52.1 9 Q 52.1 9.5 52.2 10.1 Q 52.3 10.7 52.5 11.3 Q 52.7 11.9 52.9 12.7 L 63.9 45.2 Q 64.9 48.1 65.7 51 Q 66.5 53.9 67.2 56.55 Q 67.9 59.2 68.4 61.6 Q 68.9 59.2 69.55 56.6 Q 70.2 54 71.05 51.15 Q 71.9 48.3 73 45.2 L 84 13.4 Q 84.3 12.6 84.5 11.8 Q 84.7 11 84.8 10.3 Q 84.9 9.6 84.9 9.1 Q 84.9 6.5 83.25 5.35 Q 81.6 4.2 78.3 4.2 L 76 4.2 L 76 0 L 100.4 0 L 100.4 4.2 L 98.5 4.2 Q 96.6 4.2 95.3 4.8 Q 94 5.4 93 7.05 Q 92 8.7 90.9 12 L 70.2 71.4 L 62.9 71.4 Z" id="1" vector-effect="non-scaling-stroke"/></g></svg>