<svg width="98.1" height="71.4" viewBox="0 0 98.1 71.4" xmlns="http://www.w3.org/2000/svg"><g id="svgGroup" stroke-linecap="round" fill-rule="evenodd" font-size="9pt" stroke="#000" stroke-width="0mm" fill="#ffffff" style="stroke:#000;stroke-width:0mm;fill:#ffffff"><path d="M 29.1 71.4 L 0 71.4 L 0 67.2 L 1.3 67.2 Q 3.6 67.2 5.45 66.7 Q 7.3 66.2 8.4 64.65 Q 9.5 63.1 9.5 60 L 9.5 11.4 Q 9.5 8.2 8.4 6.7 Q 7.3 5.2 5.45 4.7 Q 3.6 4.2 1.3 4.2 L 0 4.2 L 0 0 L 29.1 0 L 29.1 4.2 L 27.8 4.2 Q 25.6 4.2 23.7 4.7 Q 21.8 5.2 20.7 6.7 Q 19.6 8.2 19.6 11.4 L 19.6 60 Q 19.6 63.1 20.7 64.65 Q 21.8 66.2 23.7 66.7 Q 25.6 67.2 27.8 67.2 L 29.1 67.2 L 29.1 71.4 Z" id="0" vector-effect="non-scaling-stroke"/><path d="M 57.5 71.4 L 33.7 71.4 L 33.7 67.2 L 34.3 67.2 Q 36.7 67.2 38.35 66.55 Q 40 65.9 41.45 64.35 Q 42.9 62.8 44.7 60.2 L 61.4 36.3 L 44.9 9.5 Q 43.7 7.6 42.3 6.45 Q 40.9 5.3 39.35 4.75 Q 37.8 4.2 36.3 4.2 L 35 4.2 L 35 0 L 62.1 0 L 62.1 4.2 L 61.8 4.2 Q 58.4 4.2 57.25 5.05 Q 56.1 5.9 56.1 7.1 Q 56.1 8.1 56.5 9.25 Q 56.9 10.4 58.5 13 L 67.5 27.6 L 77 13.2 Q 78.1 11.5 78.8 9.95 Q 79.5 8.4 79.5 7.1 Q 79.5 5.3 77.95 4.75 Q 76.4 4.2 74.1 4.2 L 73.8 4.2 L 73.8 0 L 95.7 0 L 95.7 4.2 L 94.8 4.2 Q 92.9 4.2 91.35 4.85 Q 89.8 5.5 88.3 7.05 Q 86.8 8.6 84.9 11.4 L 70.4 32.3 L 88.8 61.9 Q 90.3 63.8 91.65 65 Q 93 66.2 94.3 66.7 Q 95.6 67.2 96.8 67.2 L 98.1 67.2 L 98.1 71.4 L 71.1 71.4 L 71.1 67.2 L 71.6 67.2 Q 74.6 67.2 76.1 66.35 Q 77.6 65.5 77.6 63.9 Q 77.6 62.8 77 61.55 Q 76.4 60.3 74.3 57 L 64.4 41.1 L 53.3 57.5 Q 52.8 58.3 52.15 59.45 Q 51.5 60.6 51.1 61.8 Q 50.7 63 50.7 64.1 Q 50.7 65.7 52.3 66.45 Q 53.9 67.2 57.2 67.2 L 57.5 67.2 L 57.5 71.4 Z" id="1" vector-effect="non-scaling-stroke"/></g></svg>