<svg width="38.501" height="82.901" viewBox="0 0 38.501 82.901" xmlns="http://www.w3.org/2000/svg"><g id="svgGroup" stroke-linecap="round" fill-rule="evenodd" font-size="9pt" stroke="#FFF" stroke-width="0mm" fill="#FFF" style="stroke:#FFF;stroke-width:0mm;fill:#FFF"><path d="M 37.6 5.2 L 27.8 5.2 L 27.8 58.3 Q 27.8 70.2 23.6 76.55 Q 19.4 82.9 11.9 82.9 Q 6.2 82.9 3.1 79 Q 0 75.1 0 68.15 Q 0 61.2 1.95 55.35 Q 3.9 49.5 7.2 45.2 Q 12.7 38 18.8 33.4 L 18.8 5.2 L 10.7 5.2 Q 7.1 5.2 7.1 2.3 Q 7.1 1 8 0.1 L 34.9 0 Q 36.6 0 37.55 0.85 Q 38.5 1.7 38.5 3 Q 38.5 4.3 37.6 5.2 Z M 18.8 58 L 18.8 37.8 Q 4.3 51.2 4.3 68 Q 4.3 73.5 6.5 76.25 Q 8.7 79 11.8 79 Q 18.8 79 18.8 58 Z" id="0" vector-effect="non-scaling-stroke"/></g></svg>