<svg width="100.401" height="95.001" viewBox="0 0 100.401 95.001" xmlns="http://www.w3.org/2000/svg"><g id="svgGroup" stroke-linecap="round" fill-rule="evenodd" font-size="9pt" stroke="#FFF" stroke-width="0mm" fill="#FFF" style="stroke:#FFF;stroke-width:0mm;fill:#FFF"><path d="M 60.8 9.8 L 60.2 5.7 Q 61.2 4.2 63.7 4.2 Q 66.2 4.2 68.1 6 Q 70 7.8 70 11.8 Q 70 24.3 63.1 33.95 Q 56.2 43.6 48.6 45.6 Q 53.7 46.1 57.65 48.85 Q 61.6 51.6 64.15 55.65 Q 66.7 59.7 68.95 64.45 Q 71.2 69.2 73.45 73.85 Q 75.7 78.5 78.4 82.35 Q 81.1 86.2 85.25 88.55 Q 89.4 90.9 94.8 90.9 Q 97.3 90.9 98.9 89.9 Q 100.4 90 100.4 91.6 Q 100.4 95 93.4 95 Q 86.4 95 80.9 92.4 Q 75.4 89.8 72 85.6 Q 68.6 81.4 65.85 76.35 Q 63.1 71.3 60.7 66.3 Q 58.3 61.3 55.65 57.1 Q 53 52.9 48.9 50.3 Q 44.8 47.7 39.5 47.7 Q 36.7 47.7 36.7 44.9 Q 36.7 44 37.5 43.25 Q 38.3 42.5 39.1 42.5 Q 45.4 42.5 50.5 37.45 Q 55.6 32.4 58.2 25 Q 60.8 17.6 60.8 9.8 Z M 31.8 1.4 L 31.8 58.1 Q 31.8 68.6 27.85 74.8 Q 23.9 81 15.95 81 Q 8 81 4 77.35 Q 0 73.7 0 67.7 Q 0 60 5 60 Q 6.2 60 7.1 60.6 Q 8 61.2 8.6 62.3 Q 7.8 64.4 7.8 68.5 Q 7.8 72.6 9.95 74.75 Q 12.1 76.9 15.4 76.9 Q 22.6 76.9 22.6 64.1 L 22.6 6.1 Q 22.6 3.1 24.1 1.55 Q 25.6 0 27.7 0 Q 29.8 0 31.8 1.4 Z" id="0" vector-effect="non-scaling-stroke"/></g></svg>