<svg width="82.701" height="86.001" viewBox="0 0 82.701 86.001" xmlns="http://www.w3.org/2000/svg"><g id="svgGroup" stroke-linecap="round" fill-rule="evenodd" font-size="9pt" stroke="#FFF" stroke-width="0mm" fill="#FFF" style="stroke:#FFF;stroke-width:0mm;fill:#FFF"><path d="M 29.701 0 Q 31.501 0 32.601 1.05 Q 33.701 2.1 33.701 3.3 Q 33.701 4.5 33.101 4.7 Q 25.901 4.7 20.351 9.9 Q 14.801 15.1 12.051 22.9 Q 9.301 30.7 9.301 39.4 Q 9.301 53.9 14.701 63.3 Q 20.101 72.7 29.601 73.4 Q 23.301 66 19.801 56 Q 16.301 46 16.301 36.2 Q 16.301 23.1 22.551 15.25 Q 28.801 7.4 38.951 7.4 Q 49.101 7.4 56.051 16.2 Q 63.001 25 63.001 38.85 Q 63.001 52.7 57.101 62.7 Q 51.201 72.7 40.901 76.1 Q 48.601 81 57.801 81 Q 67.001 81 72.551 73.8 Q 78.101 66.6 78.101 54.8 Q 78.601 54.2 79.851 54.2 Q 81.101 54.2 81.901 55.1 Q 82.701 56 82.701 58.6 Q 82.701 61.2 81.951 65 Q 81.201 68.8 79.301 72.65 Q 77.401 76.5 74.551 79.4 Q 71.701 82.3 67.201 84.15 Q 62.701 86 57.101 86 Q 44.001 86 33.601 77.4 Q 32.301 77.5 31.001 77.5 Q 17.501 77.5 8.751 67.55 Q 0.001 57.6 0.001 39.4 Q 0.001 30.6 2.801 22.95 Q 5.601 15.3 10.001 10.45 Q 14.401 5.6 19.601 2.8 Q 24.801 0 29.701 0 Z M 36.801 72.7 Q 44.701 69.9 49.251 60.55 Q 53.801 51.2 53.801 38.65 Q 53.801 26.1 50.001 19.3 Q 46.201 12.5 38.951 12.5 Q 31.701 12.5 26.951 18.9 Q 22.201 25.3 22.201 35.4 Q 22.201 45.5 26.101 55.7 Q 30.001 65.9 36.801 72.7 Z" id="0" vector-effect="non-scaling-stroke"/></g></svg>