<svg width="137.1" height="71.4" viewBox="0 0 137.1 71.4" xmlns="http://www.w3.org/2000/svg"><g id="svgGroup" stroke-linecap="round" fill-rule="evenodd" font-size="9pt" stroke="#000" stroke-width="0mm" fill="#ffffff" style="stroke:#000;stroke-width:0mm;fill:#ffffff"><path d="M 30 71.4 L 8.4 9.5 Q 7.7 7.4 6.8 6.25 Q 5.9 5.1 4.6 4.65 Q 3.3 4.2 1.3 4.2 L 0 4.2 L 0 0 L 27.5 0 L 27.5 4.2 L 25.2 4.2 Q 22.2 4.2 20.7 5.35 Q 19.2 6.5 19.2 9 Q 19.2 9.5 19.3 10.1 Q 19.4 10.7 19.6 11.3 Q 19.8 11.9 20 12.7 L 31 45.2 Q 32 48.1 32.8 51 Q 33.6 53.9 34.3 56.55 Q 35 59.2 35.5 61.6 Q 36 59.2 36.65 56.6 Q 37.3 54 38.15 51.15 Q 39 48.3 40.1 45.2 L 51.1 13.4 Q 51.4 12.6 51.6 11.8 Q 51.8 11 51.9 10.3 Q 52 9.6 52 9.1 Q 52 6.5 50.35 5.35 Q 48.7 4.2 45.4 4.2 L 43.1 4.2 L 43.1 0 L 67.5 0 L 67.5 4.2 L 65.6 4.2 Q 63.7 4.2 62.4 4.8 Q 61.1 5.4 60.1 7.05 Q 59.1 8.7 58 12 L 37.3 71.4 L 30 71.4 Z" id="0" vector-effect="non-scaling-stroke"/><path d="M 100.4 71.4 L 71.3 71.4 L 71.3 67.2 L 72.6 67.2 Q 74.9 67.2 76.75 66.7 Q 78.6 66.2 79.7 64.65 Q 80.8 63.1 80.8 60 L 80.8 11.4 Q 80.8 8.2 79.7 6.7 Q 78.6 5.2 76.75 4.7 Q 74.9 4.2 72.6 4.2 L 71.3 4.2 L 71.3 0 L 100.4 0 L 100.4 4.2 L 99.1 4.2 Q 96.9 4.2 95 4.7 Q 93.1 5.2 92 6.7 Q 90.9 8.2 90.9 11.4 L 90.9 60 Q 90.9 63.1 92 64.65 Q 93.1 66.2 95 66.7 Q 96.9 67.2 99.1 67.2 L 100.4 67.2 L 100.4 71.4 Z" id="1" vector-effect="non-scaling-stroke"/><path d="M 137.1 71.4 L 108 71.4 L 108 67.2 L 109.3 67.2 Q 111.6 67.2 113.45 66.7 Q 115.3 66.2 116.4 64.65 Q 117.5 63.1 117.5 60 L 117.5 11.4 Q 117.5 8.2 116.4 6.7 Q 115.3 5.2 113.45 4.7 Q 111.6 4.2 109.3 4.2 L 108 4.2 L 108 0 L 137.1 0 L 137.1 4.2 L 135.8 4.2 Q 133.6 4.2 131.7 4.7 Q 129.8 5.2 128.7 6.7 Q 127.6 8.2 127.6 11.4 L 127.6 60 Q 127.6 63.1 128.7 64.65 Q 129.8 66.2 131.7 66.7 Q 133.6 67.2 135.8 67.2 L 137.1 67.2 L 137.1 71.4 Z" id="2" vector-effect="non-scaling-stroke"/></g></svg>