<svg width="169.4" height="71.4" viewBox="0 0 169.4 71.4" xmlns="http://www.w3.org/2000/svg"><g id="svgGroup" stroke-linecap="round" fill-rule="evenodd" font-size="9pt" stroke="#000" stroke-width="0mm" fill="#ffffff" style="stroke:#000;stroke-width:0mm;fill:#ffffff"><path d="M 23.8 71.4 L 0 71.4 L 0 67.2 L 0.6 67.2 Q 3 67.2 4.65 66.55 Q 6.3 65.9 7.75 64.35 Q 9.2 62.8 11 60.2 L 27.7 36.3 L 11.2 9.5 Q 10 7.6 8.6 6.45 Q 7.2 5.3 5.65 4.75 Q 4.1 4.2 2.6 4.2 L 1.3 4.2 L 1.3 0 L 28.4 0 L 28.4 4.2 L 28.1 4.2 Q 24.7 4.2 23.55 5.05 Q 22.4 5.9 22.4 7.1 Q 22.4 8.1 22.8 9.25 Q 23.2 10.4 24.8 13 L 33.8 27.6 L 43.3 13.2 Q 44.4 11.5 45.1 9.95 Q 45.8 8.4 45.8 7.1 Q 45.8 5.3 44.25 4.75 Q 42.7 4.2 40.4 4.2 L 40.1 4.2 L 40.1 0 L 62 0 L 62 4.2 L 61.1 4.2 Q 59.2 4.2 57.65 4.85 Q 56.1 5.5 54.6 7.05 Q 53.1 8.6 51.2 11.4 L 36.7 32.3 L 55.1 61.9 Q 56.6 63.8 57.95 65 Q 59.3 66.2 60.6 66.7 Q 61.9 67.2 63.1 67.2 L 64.4 67.2 L 64.4 71.4 L 37.4 71.4 L 37.4 67.2 L 37.9 67.2 Q 40.9 67.2 42.4 66.35 Q 43.9 65.5 43.9 63.9 Q 43.9 62.8 43.3 61.55 Q 42.7 60.3 40.6 57 L 30.7 41.1 L 19.6 57.5 Q 19.1 58.3 18.45 59.45 Q 17.8 60.6 17.4 61.8 Q 17 63 17 64.1 Q 17 65.7 18.6 66.45 Q 20.2 67.2 23.5 67.2 L 23.8 67.2 L 23.8 71.4 Z" id="0" vector-effect="non-scaling-stroke"/><path d="M 98.1 71.4 L 69 71.4 L 69 67.2 L 70.3 67.2 Q 72.6 67.2 74.45 66.7 Q 76.3 66.2 77.4 64.65 Q 78.5 63.1 78.5 60 L 78.5 11.4 Q 78.5 8.2 77.4 6.7 Q 76.3 5.2 74.45 4.7 Q 72.6 4.2 70.3 4.2 L 69 4.2 L 69 0 L 98.1 0 L 98.1 4.2 L 96.8 4.2 Q 94.6 4.2 92.7 4.7 Q 90.8 5.2 89.7 6.7 Q 88.6 8.2 88.6 11.4 L 88.6 60 Q 88.6 63.1 89.7 64.65 Q 90.8 66.2 92.7 66.7 Q 94.6 67.2 96.8 67.2 L 98.1 67.2 L 98.1 71.4 Z" id="1" vector-effect="non-scaling-stroke"/><path d="M 131.9 71.4 L 110.3 9.5 Q 109.6 7.4 108.7 6.25 Q 107.8 5.1 106.5 4.65 Q 105.2 4.2 103.2 4.2 L 101.9 4.2 L 101.9 0 L 129.4 0 L 129.4 4.2 L 127.1 4.2 Q 124.1 4.2 122.6 5.35 Q 121.1 6.5 121.1 9 Q 121.1 9.5 121.2 10.1 Q 121.3 10.7 121.5 11.3 Q 121.7 11.9 121.9 12.7 L 132.9 45.2 Q 133.9 48.1 134.7 51 Q 135.5 53.9 136.2 56.55 Q 136.9 59.2 137.4 61.6 Q 137.9 59.2 138.55 56.6 Q 139.2 54 140.05 51.15 Q 140.9 48.3 142 45.2 L 153 13.4 Q 153.3 12.6 153.5 11.8 Q 153.7 11 153.8 10.3 Q 153.9 9.6 153.9 9.1 Q 153.9 6.5 152.25 5.35 Q 150.6 4.2 147.3 4.2 L 145 4.2 L 145 0 L 169.4 0 L 169.4 4.2 L 167.5 4.2 Q 165.6 4.2 164.3 4.8 Q 163 5.4 162 7.05 Q 161 8.7 159.9 12 L 139.2 71.4 L 131.9 71.4 Z" id="2" vector-effect="non-scaling-stroke"/></g></svg>