<svg width="167.1" height="71.4" viewBox="0 0 167.1 71.4" xmlns="http://www.w3.org/2000/svg"><g id="svgGroup" stroke-linecap="round" fill-rule="evenodd" font-size="9pt" stroke="#000" stroke-width="0mm" fill="#ffffff" style="stroke:#000;stroke-width:0mm;fill:#ffffff"><path d="M 23.8 71.4 L 0 71.4 L 0 67.2 L 0.6 67.2 Q 3 67.2 4.65 66.55 Q 6.3 65.9 7.75 64.35 Q 9.2 62.8 11 60.2 L 27.7 36.3 L 11.2 9.5 Q 10 7.6 8.6 6.45 Q 7.2 5.3 5.65 4.75 Q 4.1 4.2 2.6 4.2 L 1.3 4.2 L 1.3 0 L 28.4 0 L 28.4 4.2 L 28.1 4.2 Q 24.7 4.2 23.55 5.05 Q 22.4 5.9 22.4 7.1 Q 22.4 8.1 22.8 9.25 Q 23.2 10.4 24.8 13 L 33.8 27.6 L 43.3 13.2 Q 44.4 11.5 45.1 9.95 Q 45.8 8.4 45.8 7.1 Q 45.8 5.3 44.25 4.75 Q 42.7 4.2 40.4 4.2 L 40.1 4.2 L 40.1 0 L 62 0 L 62 4.2 L 61.1 4.2 Q 59.2 4.2 57.65 4.85 Q 56.1 5.5 54.6 7.05 Q 53.1 8.6 51.2 11.4 L 36.7 32.3 L 55.1 61.9 Q 56.6 63.8 57.95 65 Q 59.3 66.2 60.6 66.7 Q 61.9 67.2 63.1 67.2 L 64.4 67.2 L 64.4 71.4 L 37.4 71.4 L 37.4 67.2 L 37.9 67.2 Q 40.9 67.2 42.4 66.35 Q 43.9 65.5 43.9 63.9 Q 43.9 62.8 43.3 61.55 Q 42.7 60.3 40.6 57 L 30.7 41.1 L 19.6 57.5 Q 19.1 58.3 18.45 59.45 Q 17.8 60.6 17.4 61.8 Q 17 63 17 64.1 Q 17 65.7 18.6 66.45 Q 20.2 67.2 23.5 67.2 L 23.8 67.2 L 23.8 71.4 Z" id="0" vector-effect="non-scaling-stroke"/><path d="M 98.1 71.4 L 69 71.4 L 69 67.2 L 70.3 67.2 Q 72.6 67.2 74.45 66.7 Q 76.3 66.2 77.4 64.65 Q 78.5 63.1 78.5 60 L 78.5 11.4 Q 78.5 8.2 77.4 6.7 Q 76.3 5.2 74.45 4.7 Q 72.6 4.2 70.3 4.2 L 69 4.2 L 69 0 L 98.1 0 L 98.1 4.2 L 96.8 4.2 Q 94.6 4.2 92.7 4.7 Q 90.8 5.2 89.7 6.7 Q 88.6 8.2 88.6 11.4 L 88.6 60 Q 88.6 63.1 89.7 64.65 Q 90.8 66.2 92.7 66.7 Q 94.6 67.2 96.8 67.2 L 98.1 67.2 L 98.1 71.4 Z" id="1" vector-effect="non-scaling-stroke"/><path d="M 126.5 71.4 L 102.7 71.4 L 102.7 67.2 L 103.3 67.2 Q 105.7 67.2 107.35 66.55 Q 109 65.9 110.45 64.35 Q 111.9 62.8 113.7 60.2 L 130.4 36.3 L 113.9 9.5 Q 112.7 7.6 111.3 6.45 Q 109.9 5.3 108.35 4.75 Q 106.8 4.2 105.3 4.2 L 104 4.2 L 104 0 L 131.1 0 L 131.1 4.2 L 130.8 4.2 Q 127.4 4.2 126.25 5.05 Q 125.1 5.9 125.1 7.1 Q 125.1 8.1 125.5 9.25 Q 125.9 10.4 127.5 13 L 136.5 27.6 L 146 13.2 Q 147.1 11.5 147.8 9.95 Q 148.5 8.4 148.5 7.1 Q 148.5 5.3 146.95 4.75 Q 145.4 4.2 143.1 4.2 L 142.8 4.2 L 142.8 0 L 164.7 0 L 164.7 4.2 L 163.8 4.2 Q 161.9 4.2 160.35 4.85 Q 158.8 5.5 157.3 7.05 Q 155.8 8.6 153.9 11.4 L 139.4 32.3 L 157.8 61.9 Q 159.3 63.8 160.65 65 Q 162 66.2 163.3 66.7 Q 164.6 67.2 165.8 67.2 L 167.1 67.2 L 167.1 71.4 L 140.1 71.4 L 140.1 67.2 L 140.6 67.2 Q 143.6 67.2 145.1 66.35 Q 146.6 65.5 146.6 63.9 Q 146.6 62.8 146 61.55 Q 145.4 60.3 143.3 57 L 133.4 41.1 L 122.3 57.5 Q 121.8 58.3 121.15 59.45 Q 120.5 60.6 120.1 61.8 Q 119.7 63 119.7 64.1 Q 119.7 65.7 121.3 66.45 Q 122.9 67.2 126.2 67.2 L 126.5 67.2 L 126.5 71.4 Z" id="2" vector-effect="non-scaling-stroke"/></g></svg>