<svg width="132.7" height="71.4" viewBox="0 0 132.7 71.4" xmlns="http://www.w3.org/2000/svg"><g id="svgGroup" stroke-linecap="round" fill-rule="evenodd" font-size="9pt" stroke="#000" stroke-width="0mm" fill="#ffffff" style="stroke:#000;stroke-width:0mm;fill:#ffffff"><path d="M 23.8 71.4 L 0 71.4 L 0 67.2 L 0.6 67.2 Q 3 67.2 4.65 66.55 Q 6.3 65.9 7.75 64.35 Q 9.2 62.8 11 60.2 L 27.7 36.3 L 11.2 9.5 Q 10 7.6 8.6 6.45 Q 7.2 5.3 5.65 4.75 Q 4.1 4.2 2.6 4.2 L 1.3 4.2 L 1.3 0 L 28.4 0 L 28.4 4.2 L 28.1 4.2 Q 24.7 4.2 23.55 5.05 Q 22.4 5.9 22.4 7.1 Q 22.4 8.1 22.8 9.25 Q 23.2 10.4 24.8 13 L 33.8 27.6 L 43.3 13.2 Q 44.4 11.5 45.1 9.95 Q 45.8 8.4 45.8 7.1 Q 45.8 5.3 44.25 4.75 Q 42.7 4.2 40.4 4.2 L 40.1 4.2 L 40.1 0 L 62 0 L 62 4.2 L 61.1 4.2 Q 59.2 4.2 57.65 4.85 Q 56.1 5.5 54.6 7.05 Q 53.1 8.6 51.2 11.4 L 36.7 32.3 L 55.1 61.9 Q 56.6 63.8 57.95 65 Q 59.3 66.2 60.6 66.7 Q 61.9 67.2 63.1 67.2 L 64.4 67.2 L 64.4 71.4 L 37.4 71.4 L 37.4 67.2 L 37.9 67.2 Q 40.9 67.2 42.4 66.35 Q 43.9 65.5 43.9 63.9 Q 43.9 62.8 43.3 61.55 Q 42.7 60.3 40.6 57 L 30.7 41.1 L 19.6 57.5 Q 19.1 58.3 18.45 59.45 Q 17.8 60.6 17.4 61.8 Q 17 63 17 64.1 Q 17 65.7 18.6 66.45 Q 20.2 67.2 23.5 67.2 L 23.8 67.2 L 23.8 71.4 Z" id="0" vector-effect="non-scaling-stroke"/><path d="M 95.2 71.4 L 73.6 9.5 Q 72.9 7.4 72 6.25 Q 71.1 5.1 69.8 4.65 Q 68.5 4.2 66.5 4.2 L 65.2 4.2 L 65.2 0 L 92.7 0 L 92.7 4.2 L 90.4 4.2 Q 87.4 4.2 85.9 5.35 Q 84.4 6.5 84.4 9 Q 84.4 9.5 84.5 10.1 Q 84.6 10.7 84.8 11.3 Q 85 11.9 85.2 12.7 L 96.2 45.2 Q 97.2 48.1 98 51 Q 98.8 53.9 99.5 56.55 Q 100.2 59.2 100.7 61.6 Q 101.2 59.2 101.85 56.6 Q 102.5 54 103.35 51.15 Q 104.2 48.3 105.3 45.2 L 116.3 13.4 Q 116.6 12.6 116.8 11.8 Q 117 11 117.1 10.3 Q 117.2 9.6 117.2 9.1 Q 117.2 6.5 115.55 5.35 Q 113.9 4.2 110.6 4.2 L 108.3 4.2 L 108.3 0 L 132.7 0 L 132.7 4.2 L 130.8 4.2 Q 128.9 4.2 127.6 4.8 Q 126.3 5.4 125.3 7.05 Q 124.3 8.7 123.2 12 L 102.5 71.4 L 95.2 71.4 Z" id="1" vector-effect="non-scaling-stroke"/></g></svg>