<svg width="130.4" height="71.4" viewBox="0 0 130.4 71.4" xmlns="http://www.w3.org/2000/svg"><g id="svgGroup" stroke-linecap="round" fill-rule="evenodd" font-size="9pt" stroke="#000" stroke-width="0mm" fill="#ffffff" style="stroke:#000;stroke-width:0mm;fill:#ffffff"><path d="M 23.8 71.4 L 0 71.4 L 0 67.2 L 0.6 67.2 Q 3 67.2 4.65 66.55 Q 6.3 65.9 7.75 64.35 Q 9.2 62.8 11 60.2 L 27.7 36.3 L 11.2 9.5 Q 10 7.6 8.6 6.45 Q 7.2 5.3 5.65 4.75 Q 4.1 4.2 2.6 4.2 L 1.3 4.2 L 1.3 0 L 28.4 0 L 28.4 4.2 L 28.1 4.2 Q 24.7 4.2 23.55 5.05 Q 22.4 5.9 22.4 7.1 Q 22.4 8.1 22.8 9.25 Q 23.2 10.4 24.8 13 L 33.8 27.6 L 43.3 13.2 Q 44.4 11.5 45.1 9.95 Q 45.8 8.4 45.8 7.1 Q 45.8 5.3 44.25 4.75 Q 42.7 4.2 40.4 4.2 L 40.1 4.2 L 40.1 0 L 62 0 L 62 4.2 L 61.1 4.2 Q 59.2 4.2 57.65 4.85 Q 56.1 5.5 54.6 7.05 Q 53.1 8.6 51.2 11.4 L 36.7 32.3 L 55.1 61.9 Q 56.6 63.8 57.95 65 Q 59.3 66.2 60.6 66.7 Q 61.9 67.2 63.1 67.2 L 64.4 67.2 L 64.4 71.4 L 37.4 71.4 L 37.4 67.2 L 37.9 67.2 Q 40.9 67.2 42.4 66.35 Q 43.9 65.5 43.9 63.9 Q 43.9 62.8 43.3 61.55 Q 42.7 60.3 40.6 57 L 30.7 41.1 L 19.6 57.5 Q 19.1 58.3 18.45 59.45 Q 17.8 60.6 17.4 61.8 Q 17 63 17 64.1 Q 17 65.7 18.6 66.45 Q 20.2 67.2 23.5 67.2 L 23.8 67.2 L 23.8 71.4 Z" id="0" vector-effect="non-scaling-stroke"/><path d="M 89.8 71.4 L 66 71.4 L 66 67.2 L 66.6 67.2 Q 69 67.2 70.65 66.55 Q 72.3 65.9 73.75 64.35 Q 75.2 62.8 77 60.2 L 93.7 36.3 L 77.2 9.5 Q 76 7.6 74.6 6.45 Q 73.2 5.3 71.65 4.75 Q 70.1 4.2 68.6 4.2 L 67.3 4.2 L 67.3 0 L 94.4 0 L 94.4 4.2 L 94.1 4.2 Q 90.7 4.2 89.55 5.05 Q 88.4 5.9 88.4 7.1 Q 88.4 8.1 88.8 9.25 Q 89.2 10.4 90.8 13 L 99.8 27.6 L 109.3 13.2 Q 110.4 11.5 111.1 9.95 Q 111.8 8.4 111.8 7.1 Q 111.8 5.3 110.25 4.75 Q 108.7 4.2 106.4 4.2 L 106.1 4.2 L 106.1 0 L 128 0 L 128 4.2 L 127.1 4.2 Q 125.2 4.2 123.65 4.85 Q 122.1 5.5 120.6 7.05 Q 119.1 8.6 117.2 11.4 L 102.7 32.3 L 121.1 61.9 Q 122.6 63.8 123.95 65 Q 125.3 66.2 126.6 66.7 Q 127.9 67.2 129.1 67.2 L 130.4 67.2 L 130.4 71.4 L 103.4 71.4 L 103.4 67.2 L 103.9 67.2 Q 106.9 67.2 108.4 66.35 Q 109.9 65.5 109.9 63.9 Q 109.9 62.8 109.3 61.55 Q 108.7 60.3 106.6 57 L 96.7 41.1 L 85.6 57.5 Q 85.1 58.3 84.45 59.45 Q 83.8 60.6 83.4 61.8 Q 83 63 83 64.1 Q 83 65.7 84.6 66.45 Q 86.2 67.2 89.5 67.2 L 89.8 67.2 L 89.8 71.4 Z" id="1" vector-effect="non-scaling-stroke"/></g></svg>